/* XPM */
static char * bitcoin32_xpm[] = {
"32 32 125 2",
"  	c None",
". 	c #6B6B00",
"+ 	c #8B8B37",
"@ 	c #B0B078",
"# 	c #B0B077",
"$ 	c #B1B179",
"% 	c #83832A",
"& 	c #757512",
"* 	c #B3B37C",
"= 	c #A3A361",
"- 	c #FFFFFF",
"; 	c #F6F6EF",
"> 	c #696900",
", 	c #7B7B1C",
"' 	c #FCFCFA",
") 	c #F5F5EE",
"! 	c #A1A15D",
"~ 	c #707008",
"{ 	c #DBDBC2",
"] 	c #CACAA3",
"^ 	c #676700",
"/ 	c #6A6A00",
"( 	c #636300",
"_ 	c #8D8D3A",
": 	c #FBFBF7",
"< 	c #969649",
"[ 	c #6D6D03",
"} 	c #72720C",
"| 	c #E0E0C9",
"1 	c #FFFFFD",
"2 	c #939344",
"3 	c #ACAC71",
"4 	c #EFEFE4",
"5 	c #D2D2B1",
"6 	c #8E8E3C",
"7 	c #A4A463",
"8 	c #ADAD73",
"9 	c #6E6E05",
"0 	c #D9D9BE",
"a 	c #B9B986",
"b 	c #888831",
"c 	c #8B8B38",
"d 	c #797918",
"e 	c #BBBB89",
"f 	c #AAAA6D",
"g 	c #FAFAF6",
"h 	c #D6D6B7",
"i 	c #656500",
"j 	c #757511",
"k 	c #FEFEFD",
"l 	c #B9B985",
"m 	c #A9A96B",
"n 	c #898935",
"o 	c #787817",
"p 	c #B9B987",
"q 	c #C5C59B",
"r 	c #9F9F59",
"s 	c #B8B885",
"t 	c #BDBD8D",
"u 	c #C4C49A",
"v 	c #C3C398",
"w 	c #898934",
"x 	c #767613",
"y 	c #9E9E58",
"z 	c #74740F",
"A 	c #646400",
"B 	c #7F7F22",
"C 	c #AEAE73",
"D 	c #7F7F23",
"E 	c #767614",
"F 	c #EDEDDF",
"G 	c #C7C79F",
"H 	c #7C7C1E",
"I 	c #DEDEC7",
"J 	c #E1E1CC",
"K 	c #959548",
"L 	c #666600",
"M 	c #D1D1AF",
"N 	c #E5E5D3",
"O 	c #818126",
"P 	c #84842B",
"Q 	c #9E9E59",
"R 	c #A4A462",
"S 	c #F9F9F5",
"T 	c #A8A869",
"U 	c #D9D9BD",
"V 	c #ADAD71",
"W 	c #6C6C02",
"X 	c #AEAE74",
"Y 	c #7D7D1F",
"Z 	c #7B7B1B",
"` 	c #A0A05C",
" .	c #6B6B01",
"..	c #C6C69D",
"+.	c #FDFDFB",
"@.	c #686800",
"#.	c #D4D4B4",
"$.	c #CDCDA9",
"%.	c #F5F5ED",
"&.	c #99994F",
"*.	c #939345",
"=.	c #84842C",
"-.	c #F3F3EB",
";.	c #5F5F00",
">.	c #CCCCA6",
",.	c #F1F1E7",
"'.	c #8C8C39",
").	c #777715",
"!.	c #F8F8F2",
"~.	c #AFAF75",
"{.	c #919141",
"].	c #BEBE8E",
"^.	c #FEFEFE",
"/.	c #BFBF90",
"(.	c #CFCFAC",
"_.	c #F0F0E5",
":.	c #A0A05B",
"<.	c #A8A868",
"[.	c #626200",
"}.	c #808023",
"|.	c #8E8E3B",
"1.	c #B5B57F",
"2.	c #808024",
"3.	c #A2A25F",
"4.	c #797917",
"                          . . . . . .                           ",
"                    . . . . . . . . . . . .                     ",
"                . . . . . . . . . . . . . . . .                 ",
"            . . . . . . . . . . . . . . . . . . . .             ",
"          . . . . . . . . . . . . . . . . . . . . . .           ",
"        . + @ # # # # $ % . . . . . & * # # # # # @ + .         ",
"      . . = - - - - - - ; > . . . . , ' - - - - - ) ! . .       ",
"      . . > ~ { - - - - - ] ^ . . . / ( _ : - - < [ > . .       ",
"    . . . . } | 1 - - - - - 2 . . . . . . 3 - 4 5 6 . . . .     ",
"    . . . . } 7 8 - - - - - ' 9 . . . . ^ 0 - a b c . . . .     ",
"  . . . . . d e f - g - - - - h i . . . j k - l m n . . . . .   ",
"  . . . . . o 5 p - q - - - - - r . . / s t - u v w . . . . .   ",
"  . . . . . x w y - w - - - - - - z . A - B - C D D . . . . .   ",
". . . . . . E F G - H I - - - - - J i K F L - M N O . . . . . . ",
". . . . . . z P Q - O R - S - - - - T U V W - X Y Z . . . . . . ",
". . . . . . . . ` - O  .- ..- - - - +.- ~ W - # . . . . . . . . ",
". . . . . . . . ` - O @.#.$.#.- - - - %.i W - # . . . . . . . . ",
". . . . . . . . ` - O . &.- z ' - - - - a / - # . . . . . . . . ",
". . . . . . . . ` - O . i - # *.- - - - - =.- # . . . . . . . . ",
"  . . . . . . . ` - O . > G -.;.>.- - - - ,.- # . . . . . . .   ",
"  . . . . . . . ` - O . . '.- '.).- - - - - - # . . . . . . .   ",
"  . . . . . . . 7 - O . . A !.$.$ !.- - - - - # . . . . . . .   ",
"    . . . . . . ~.- {.. . / ].^.4 a /.- - - - # . . . . . .     ",
"    . . . . . ^ (.- e > . . O - - Y ^ _.- - - # . . . . . .     ",
"      . . @.i :.- - - <./ > / [.[.. . }.- - - # . . . . .       ",
"      . . ` - - - - - - - |.. . . . . > 1.- - @ . . . . .       ",
"        . 2.! ` ` ` ` ` 3.4.. . . . . . ^ # @ + . . . .         ",
"          . . . . . . . . . . . . . . . . . . . . . .           ",
"            . . . . . . . . . . . . . . . . . . . .             ",
"                . . . . . . . . . . . . . . . .                 ",
"                    . . . . . . . . . . . .                     ",
"                          . . . . . .                           "};
