/* XPM */
static char * bitcoin16_xpm[] = {
"16 16 77 1",
" 	c None",
".	c #6B6B00",
"+	c #767612",
"@	c #898934",
"#	c #8A8A36",
"$	c #6D6D04",
"%	c #7E7E21",
"&	c #898933",
"*	c #8A8A35",
"=	c #DBDBC1",
"-	c #FFFFFF",
";	c #CDCDA9",
">	c #666600",
",	c #6A6A00",
"'	c #929244",
")	c #EBEBDD",
"!	c #C2C296",
"~	c #767613",
"{	c #9A9A50",
"]	c #96964A",
"^	c #8E8E3C",
"/	c #EFEFE3",
"(	c #9F9F58",
"_	c #696900",
":	c #A3A360",
"<	c #DBDBC2",
"[	c #F0F0E6",
"}	c #FDFDFC",
"|	c #6F6F07",
"1	c #686800",
"2	c #BEBE8F",
"3	c #E2E2CE",
"4	c #9A9A51",
"5	c #E1E1CB",
"6	c #B6B680",
"7	c #DADABF",
"8	c #B6B681",
"9	c #E9E9D8",
"0	c #7A7A1A",
"a	c #F6F6EF",
"b	c #E5E5D3",
"c	c #757510",
"d	c #E4E4D0",
"e	c #6E6E05",
"f	c #DCDCC2",
"g	c #6C6C02",
"h	c #D7D7BA",
"i	c #CECEAB",
"j	c #72720A",
"k	c #E5E5D2",
"l	c #676700",
"m	c #72720B",
"n	c #A7A767",
"o	c #9D9D56",
"p	c #FAFAF7",
"q	c #DFDFC8",
"r	c #E0E0C9",
"s	c #DDDDC4",
"t	c #71710A",
"u	c #6B6B01",
"v	c #DEDEC6",
"w	c #C7C79E",
"x	c #DCDCC3",
"y	c #646400",
"z	c #E8E8D8",
"A	c #818125",
"B	c #D8D8BA",
"C	c #D0D0AE",
"D	c #C5C59B",
"E	c #757512",
"F	c #CBCBA5",
"G	c #F5F5ED",
"H	c #9D9D57",
"I	c #F7F7F1",
"J	c #828227",
"K	c #818126",
"L	c #777715",
"      ....      ",
"    ........    ",
"  +@@#$..%&@*+  ",
"  +=--;>,')-!~  ",
" .,{)--]..^/(_. ",
" .,:<[-}|123:_. ",
"..,456--71894_..",
"...|70a--bcde...",
"...1fghi--jkl...",
"...1fmnop-qrl...",
" ..lstuvw--xl.. ",
" ..yzAlBCD-xl.. ",
"  EF-GHy>_Ir>.  ",
"  mJKK0...LJ,.  ",
"    ........    ",
"      ....      "};
