/* XPM */
static char * bitcoin64_xpm[] = {
"64 64 193 2",
"  	c None",
". 	c #6B6B00",
"+ 	c #6B6B01",
"@ 	c #636300",
"# 	c #666600",
"$ 	c #686800",
"% 	c #FDFDFC",
"& 	c #FEFEFE",
"* 	c #E5E5D3",
"= 	c #A0A05B",
"- 	c #FFFFFF",
"; 	c #B5B57F",
"> 	c #696900",
", 	c #A0A05C",
"' 	c #676700",
") 	c #C2C296",
"! 	c #F8F8F2",
"~ 	c #828227",
"{ 	c #84842C",
"] 	c #CECEAB",
"^ 	c #FCFCFA",
"/ 	c #F3F3EA",
"( 	c #CCCCA7",
"_ 	c #B5B580",
": 	c #6A6A00",
"< 	c #646400",
"[ 	c #97974B",
"} 	c #F1F1E7",
"| 	c #656500",
"1 	c #949447",
"2 	c #E6E6D4",
"3 	c #FFFFFE",
"4 	c #F6F6F0",
"5 	c #8C8C38",
"6 	c #626200",
"7 	c #787816",
"8 	c #9D9D56",
"9 	c #DEDEC7",
"0 	c #C4C499",
"a 	c #D5D5B7",
"b 	c #707008",
"c 	c #7D7D20",
"d 	c #98984D",
"e 	c #818126",
"f 	c #F2F2E9",
"g 	c #8B8B37",
"h 	c #BBBB8A",
"i 	c #5F5F00",
"j 	c #CBCBA5",
"k 	c #FAFAF7",
"l 	c #F9F9F4",
"m 	c #6C6C01",
"n 	c #72720D",
"o 	c #D0D0AF",
"p 	c #888833",
"q 	c #71710B",
"r 	c #D7D7BA",
"s 	c #7A7A1A",
"t 	c #B1B17A",
"u 	c #EFEFE4",
"v 	c #9A9A51",
"w 	c #CACAA4",
"x 	c #86862E",
"y 	c #A4A462",
"z 	c #8C8C39",
"A 	c #D0D0AE",
"B 	c #E1E1CC",
"C 	c #6E6E04",
"D 	c #A7A767",
"E 	c #AEAE73",
"F 	c #8B8B38",
"G 	c #A3A360",
"H 	c #878731",
"I 	c #E6E6D3",
"J 	c #E3E3CF",
"K 	c #DADAC0",
"L 	c #ABAB6E",
"M 	c #D5D5B6",
"N 	c #85852D",
"O 	c #959548",
"P 	c #F7F7F1",
"Q 	c #DBDBC1",
"R 	c #B9B987",
"S 	c #F0F0E5",
"T 	c #A8A86A",
"U 	c #A1A15E",
"V 	c #EEEEE1",
"W 	c #9B9B53",
"X 	c #CFCFAB",
"Y 	c #E9E9D9",
"Z 	c #DFDFC8",
"` 	c #9C9C54",
" .	c #DDDDC4",
"..	c #898934",
"+.	c #F4F4ED",
"@.	c #6E6E06",
"#.	c #FEFEFD",
"$.	c #BFBF90",
"%.	c #ADAD72",
"&.	c #797919",
"*.	c #8E8E3D",
"=.	c #A3A362",
"-.	c #C8C8A1",
";.	c #767613",
">.	c #7E7E21",
",.	c #878730",
"'.	c #8D8D3A",
").	c #D6D6B9",
"!.	c #B2B27A",
"~.	c #6C6C02",
"{.	c #7C7C1D",
"].	c #777714",
"^.	c #BEBE8E",
"/.	c #A3A361",
"(.	c #BFBF91",
"_.	c #ABAB6F",
":.	c #EDEDE1",
"<.	c #D2D2B1",
"[.	c #7E7E20",
"}.	c #A8A868",
"|.	c #E8E8D7",
"1.	c #AAAA6C",
"2.	c #B8B884",
"3.	c #B3B37D",
"4.	c #E8E8D8",
"5.	c #96964A",
"6.	c #EAEADA",
"7.	c #A8A869",
"8.	c #919142",
"9.	c #ACAC70",
"0.	c #8D8D3B",
"a.	c #BDBD8E",
"b.	c #85852C",
"c.	c #6F6F06",
"d.	c #BDBD8C",
"e.	c #70700A",
"f.	c #C8C8A0",
"g.	c #E1E1CB",
"h.	c #87872F",
"i.	c #C9C9A2",
"j.	c #DADABF",
"k.	c #6F6F08",
"l.	c #FBFBF8",
"m.	c #F8F8F3",
"n.	c #A1A15D",
"o.	c #BCBC8C",
"p.	c #747410",
"q.	c #DBDBC2",
"r.	c #EDEDE0",
"s.	c #FCFCF9",
"t.	c #9C9C53",
"u.	c #D9D9BD",
"v.	c #9D9D57",
"w.	c #D1D1AF",
"x.	c #E0E0CA",
"y.	c #6C6C03",
"z.	c #F9F9F5",
"A.	c #E2E2CC",
"B.	c #707009",
"C.	c #BCBC8D",
"D.	c #C6C69D",
"E.	c #F6F6EF",
"F.	c #969649",
"G.	c #888832",
"H.	c #9A9A50",
"I.	c #74740F",
"J.	c #E4E4D1",
"K.	c #A2A25F",
"L.	c #B3B37B",
"M.	c #7F7F22",
"N.	c #B4B47E",
"O.	c #939345",
"P.	c #B8B885",
"Q.	c #AFAF76",
"R.	c #CDCDA9",
"S.	c #F7F7F2",
"T.	c #C0C092",
"U.	c #BBBB89",
"V.	c #757512",
"W.	c #B0B077",
"X.	c #909040",
"Y.	c #84842B",
"Z.	c #A4A461",
"`.	c #F5F5EE",
" +	c #777716",
".+	c #D8D8BB",
"++	c #AAAA6D",
"@+	c #C5C59B",
"#+	c #86862F",
"$+	c #C9C9A1",
"%+	c #98984E",
"&+	c #E9E9DA",
"*+	c #CECEAA",
"                                                                                                                                ",
"                                                . . . . . . . . . . . . . . . .                                                 ",
"                                          . . . . . . . . . . . . . . . . . . . . . .                                           ",
"                                      . . . . . . . . . . . . . . . . . . . . . . . . . .                                       ",
"                                  . . . . . . . . . . . . . . . . . . . . . . . . . . . . . .                                   ",
"                              . . . . . . . . . . . . . . . . . . . . . . . . . . . . . . . . . .                               ",
"                            . . . . . . . . . . . . . . . . . . . . . . . . . . . . . . . . . . . .                             ",
"                        . . . . . . . . . . . . . . . . . . . . . . . . . . . . . . . . . . . . . . . .                         ",
"                      . . . . . . . . . . . . . . . . . . . . . . . . . . . . . . . . . . . . . . . . . .                       ",
"                    . . . . . . . . . . . . . . . . . . . . . . . . . . . . . . . . . . . . . . . . . . . .                     ",
"                  . + @ @ @ @ @ @ @ @ @ @ @ @ @ # . . . . . . . . . . . . $ @ @ @ @ @ @ @ @ @ @ @ @ @ @ @ + .                   ",
"                . . @ % & & & & & & & & & & & & * # . . . . . . . . . . . = - & & & & & & & & & & & & & % @ . .                 ",
"              . . . @ & - - - - - - - - - - - - - ; > . . . . . . . . . . , - - - - - - - - - - - - - - & @ . . .               ",
"              . . . ' ) ! - - - - - - - - - - - - - ~ . . . . . . . . . . { ] ^ - - - - - - - - - - / ( _ ' . . .               ",
"            . . . . . : < [ } - - - - - - - - - - - / # . . . . . . . . . . $ | 1 2 - - - - - 3 4 5 6 $ . . . . . .             ",
"          . . . . . . . . 7 8 9 - - - - - - - - - - - 0 $ . . . . . . . . . . . . < a - - - - - b c d . . . . . . . .           ",
"          . . . . . . . . e % @ f - - - - - - - - - - - g . . . . . . . . . . . . . . - - - - h i j _ . . . . . . . .           ",
"        . . . . . . . . . e - - k - - - - - - - - - - - l m . . . . . . . . . . . . @ f - - - ! - - _ . . . . . . . . .         ",
"        . . . . . . . . . e - n ' - - - - - - - - - - - - o # . . . . . . . . . . . p - - - - q @ r ; . . . . . . . . .         ",
"      . . . . . . . . . . s t : < u - - - - - - - - - - - - v . . . . . . . . . . > w - - - - ' . x y . . . . . . . . . .       ",
"      . . . . . . . . . . z A $ # B - - - - - - - - - - - - - C . . . . . . . . . : - - - - - @ . D E . . . . . . . . . .       ",
"    . . . . . . . . . . . F - G H I - - J - - - - - - - - - - K | . . . . . . . . L - M - - - N O P L . . . . . . . . . . .     ",
"    . . . . . . . . . . . F - Q R S - - T - - - - - - - - - - - U : . . . . . . @ V - W - - - ; X - L . . . . . . . . . . .     ",
"    . . . . . . . . . . . z Y 6 # Z - - `  .- - - - - - - - - - - 7 . . . . . . ..- +.@.- - #.@ ' $.%.. . . . . . . . . . .     ",
"  . . . . . . . . . . . . &.*.. # Z - - , =.- - - - - - - - - - - I | . . . . > -.- R ;.- - & @ . >.,.. . . . . . . . . . . .   ",
"  . . . . . . . . . . . . '.).# # Z - - , : - - - - - - - - - - - - !.> . . . ~.- - {.].- - & @ > ^./.. . . . . . . . . . . .   ",
"  . . . . . . . . . . . . F - (._.:.- - , $ <.- - - - - - - - - - - - [.. . . }.- |.| ].- - - 1.2.- , . . . . . . . . . . . .   ",
"  . . . . . . . . . . . . F - 3.O 4.- - , . 5.- - - - - - - - - - - - S ' . < 6.- 7.. ].- - - 8.9.- , . . . . . . . . . . . .   ",
"  . . . . . . . . . . . . 0.a ' # Z - - , . | - - - - - - - - - - - - - a.> b.- - c.. ].- - & @ : d./.. . . . . . . . . . . .   ",
"  . . . . . . . . . . . . C e.. # Z - - , . > f.- l g.- - - - - - - - - - h.i.- j.' . ].- - & @ . c.k.. . . . . . . . . . . .   ",
"  . . . . . . . . . . . . . . . # Z - - , . . g - - E - - - - - - - - - - V l.- v . . ].- - & @ . . . . . . . . . . . . . . .   ",
"  . . . . . . . . . . . . . . . # Z - - , . . | m.- B n.- - - - - - - - - - - - ' . . ].- - & @ . . . . . . . . . . . . . . .   ",
"  . . . . . . . . . . . . . . . # Z - - , . . : o.- - p.q.- - - - - - - - - - -.> . . ].- - & @ . . . . . . . . . . . . . . .   ",
"  . . . . . . . . . . . . . . . # Z - - , . . . e - - $.k.- - - - - - - - - - #.b . . ].- - & @ . . . . . . . . . . . . . . .   ",
"  . . . . . . . . . . . . . . . # Z - - , . . . < r.- s.# t.- - - - - - - - - - u.| . ].- - & @ . . . . . . . . . . . . . . .   ",
"  . . . . . . . . . . . . . . . # Z - - , . . . : 3.- - v.# w.- - - - - - - - - - n.. ].- - & @ . . . . . . . . . . . . . . .   ",
"  . . . . . . . . . . . . . . . # Z - - , . . . . q - - x.# y.z.- - - - - - - - - - n ].- - & @ . . . . . . . . . . . . . . .   ",
"  . . . . . . . . . . . . . . . # Z - - , . . . . # B - - ;.. '.- - - - - - - - - - A.B.- - & @ . . . . . . . . . . . . . . .   ",
"  . . . . . . . . . . . . . . . # Z - - , . . . . . /.- - C.: $ D.- - - - - - - - - - R - - & @ . . . . . . . . . . . . . . .   ",
"  . . . . . . . . . . . . . . . # Z - - , . . . . . ~.- - k < . ' E.- - - - - - - - - - - - & @ . . . . . . . . . . . . . . .   ",
"    . . . . . . . . . . . . . . # Z - - , . . . . . ' a - - F.. . G.- - - - - - - - - - - - & @ . . . . . . . . . . . . . .     ",
"    . . . . . . . . . . . . . . # 9 - - , . . . . . . H.- - u.' . , - - - - - - - - - - - - & @ . . . . . . . . . . . . . .     ",
"    . . . . . . . . . . . . . . # I - - , . . . . . . ' - - - I.| J.- - - - - - - - - - - - & @ . . . . . . . . . . . . . .     ",
"      . . . . . . . . . . . . . | 4.- - K.. . . . . . > f.- - L.M.- - r - - - - - - - - - - & @ . . . . . . . . . . . . .       ",
"      . . . . . . . . . . . . . < +.- - N.. . . . . . . O.- - +.P.- - '.Q.- - - - - - - - - & @ . . . . . . . . . . . . .       ",
"        . . . . . . . . . . . . @ - - - R.$ . . . . . . < P - - - - E.< | J - - - - - - - - & @ . . . . . . . . . . . .         ",
"        . . . . . . . . . . . . c - - - S.6 . . . . . . : T.- - - - U.: . V.- - - - - - - - & @ . . . . . . . . . . . .         ",
"          . . . . . . . . . . . W.- - - - X.. . . . . . . Y.- & & - s . . : Z.- - - - - - - & @ . . . . . . . . . . .           ",
"          . . . . . . . . . . ;.- - - - - `. +> . . . . . : @ @ @ 6 . . . . | .+- - - - - - & @ . . . . . . . . . . .           ",
"            . . . . . $ < q ++- - - - - - - - @+#+@ > . . . . . . . . . . . . c.- - - - - - & @ . . . . . . . . . .             ",
"              . . . ' $+} - - - - - - - - - - - - m.L : . . . . . . . . . . . . %+- - - - - & @ . . . . . . . . .               ",
"              . . . | &+- - - - - - - - - - - - - - T.: . . . . . . . . . . . . # w.- - - - & @ . . . . . . . . .               ",
"                . . # *+Z Z Z Z Z Z Z Z Z Z Z Z Z Z %.: . . . . . . . . . . . . . : E.& & & % @ . . . . . . . .                 ",
"                  . . ' # # # # # # # # # # # # # # $ . . . . . . . . . . . . . . + < @ @ @ @ + . . . . . . .                   ",
"                    . . . . . . . . . . . . . . . . . . . . . . . . . . . . . . . . . . . . . . . . . . . .                     ",
"                      . . . . . . . . . . . . . . . . . . . . . . . . . . . . . . . . . . . . . . . . . .                       ",
"                        . . . . . . . . . . . . . . . . . . . . . . . . . . . . . . . . . . . . . . . .                         ",
"                            . . . . . . . . . . . . . . . . . . . . . . . . . . . . . . . . . . . .                             ",
"                              . . . . . . . . . . . . . . . . . . . . . . . . . . . . . . . . . .                               ",
"                                  . . . . . . . . . . . . . . . . . . . . . . . . . . . . . .                                   ",
"                                      . . . . . . . . . . . . . . . . . . . . . . . . . .                                       ",
"                                          . . . . . . . . . . . . . . . . . . . . . .                                           ",
"                                                . . . . . . . . . . . . . . . .                                                 ",
"                                                                                                                                "};
